<svg id="图层_1" data-name="图层 1" xmlns="http://www.w3.org/2000/svg" xmlns:xlink="http://www.w3.org/1999/xlink" viewBox="0 0 128 128"><defs><style>.cls-1{fill:red;}.cls-2{fill:url(#未命名的渐变_11);}</style><linearGradient id="未命名的渐变_11" x1="47.95" y1="85.35" x2="95.81" y2="85.35" gradientUnits="userSpaceOnUse"><stop offset="0.04" stop-color="#fcee21"/><stop offset="0.65" stop-color="#ff0"/></linearGradient></defs><title>fxpx</title><polygon points="41.93 88.62 7.74 88.62 24.83 64.25 7.74 39.88 41.93 39.88 64.5 7.71 86.87 39.88 120.77 39.88 103.81 64.25 120.77 88.62 86.87 88.62 64.5 120.79 41.93 88.62"/><path d="M64.5,7.93l22.23,32,.07.1h33.73L103.76,64.11l-.09.14.09.14L120.53,88.5H86.8l-.07.1-22.23,32-22.43-32L42,88.5H8L24.88,64.39l.1-.14-.1-.14L8,40H42l.07-.1,22.43-32m0-.43L41.87,39.76H7.5L24.68,64.25,7.5,88.74H41.87L64.5,121,86.93,88.74H121L104,64.25l17-24.49H86.93L64.5,7.5Z"/><polygon class="cls-1" points="73.26 42.54 85.1 84.5 81.64 52 73.26 42.54"/><rect class="cls-2" x="40.32" y="83.41" width="47.87" height="3.88" rx="1.17"/><polygon class="cls-1" points="54.75 42.54 42.91 84.5 46.36 52 54.75 42.54"/><polygon class="cls-1" points="64.5 24.23 64.5 85.35 54.38 39.51 64.5 24.23"/><polygon class="cls-1" points="32.79 45.7 33.28 54.67 63.88 84.74 32.79 45.7"/><polygon class="cls-1" points="95.71 45.7 95.22 54.67 64.62 84.74 95.71 45.7"/><polygon class="cls-1" points="64.5 40 75.11 49.21 64.5 72.5 64.5 63.28 68.94 51.64 64.5 48.24 64.5 40"/></svg>