<svg id="图层_1" data-name="图层 1" xmlns="http://www.w3.org/2000/svg" xmlns:xlink="http://www.w3.org/1999/xlink" viewBox="0 0 949 256"><defs><style>.cls-1,.cls-3{fill:red;}.cls-2{fill:url(#未命名的渐变_11);}.cls-3{font-size:128px;stroke:#fff;stroke-miterlimit:10;font-family:FZDIHTJF_ZHONG--GBK1-0, FZDiHouTiJF;}.cls-4{fill:#000;}</style><linearGradient id="未命名的渐变_11" x1="104.09" y1="171.96" x2="203.62" y2="171.96" gradientUnits="userSpaceOnUse"><stop offset="0.04" stop-color="#fcee21"/><stop offset="0.65" stop-color="#ff0"/></linearGradient></defs><title>logo</title><polygon points="91.59 178.77 20.48 178.77 56.04 128.09 20.48 77.41 91.59 77.41 138.51 10.53 185.02 77.41 255.51 77.41 220.26 128.09 255.51 178.77 185.02 178.77 138.51 245.64 91.59 178.77"/><path d="M138.51,11l46.23,66.47.15.22H255L220.16,127.8l-.2.29.2.29L255,178.51H184.89l-.15.22L138.51,245.2,91.87,178.73l-.15-.22H21l35.17-50.13.21-.29-.21-.29L21,77.67H91.72l.15-.22L138.51,11m0-.89-47,67.07H20l35.73,50.93L20,179H91.46l47.05,67.07L185.15,179H256l-35.43-50.93L256,77.16H185.15L138.51,10.09Z"/><polygon class="cls-1" points="156.72 82.96 181.35 170.2 174.17 102.62 156.72 82.96"/><rect class="cls-2" x="88.23" y="167.93" width="99.53" height="8.07" rx="2.43"/><polygon class="cls-1" points="118.24 82.96 93.62 170.2 100.8 102.62 118.24 82.96"/><polygon class="cls-1" points="138.51 44.88 138.51 171.96 117.47 76.65 138.51 44.88"/><polygon class="cls-1" points="72.58 89.51 73.61 108.17 137.23 170.7 72.58 89.51"/><polygon class="cls-1" points="203.41 89.51 202.38 108.17 138.77 170.7 203.41 89.51"/><polygon class="cls-1" points="138.51 77.66 160.57 96.82 138.51 145.23 138.51 126.07 147.74 101.87 138.51 94.81 138.51 77.66"/><text class="cls-3" transform="translate(296.6 198.82) scale(1.1 1.5)">X<tspan class="cls-4" x="88.32" y="0">iang</tspan><tspan x="370.68" y="0">p</tspan><tspan class="cls-4" x="452.73" y="0">i</tspan><tspan x="488.95" y="0">X</tspan></text></svg>