<?xml version="1.0" encoding="utf-8"?>
<!-- Generator: Adobe Illustrator 23.1.0, SVG Export Plug-In . SVG Version: 6.00 Build 0)  -->
<svg version="1.1" id="图层_1" xmlns="http://www.w3.org/2000/svg" xmlns:xlink="http://www.w3.org/1999/xlink" x="0px" y="0px"
	 viewBox="0 0 949 256" style="enable-background:new 0 0 949 256;" xml:space="preserve">
<style type="text/css">
	.st0{fill:#2366D1;}
	.st1{fill:#609DFF;}
	.st2{fill:#A4C7FF;}
	.st3{fill:#333333;}
	.st4{fill:#FFFF00;stroke:#000000;stroke-width:0.5086;stroke-miterlimit:10;}
	.st5{fill:#FF0000;}
	.st6{fill:url(#SVGID_1_);}
	.st7{fill:none;}
	.st8{fill:#FF0000;stroke:#FFFFFF;stroke-miterlimit:10;}
	.st9{font-family:'FZDIHTJF_ZHONG--GBK1-0';}
	.st10{font-size:128px;}
	.st11{stroke:#FFFFFF;stroke-miterlimit:10;}
	.st12{fill:#FFFF00;stroke:#000000;stroke-width:0.2921;stroke-miterlimit:10;}
</style>
<path class="st0" d="M110.9,432.1l110.9,64l-110.9,64L0,496.1L110.9,432.1z"/>
<path class="st1" d="M110.9,368.1l110.9,64l-110.9,64L0,432.1L110.9,368.1z"/>
<path class="st2" d="M110.9,304.1l110.9,64l-110.9,64L0,368.1L110.9,304.1z"/>
<g transform="translate(300, 55.695), scale(0.7)">
	<path vector-effect="non-scaling-stroke" class="st3" d="M609,409.5v127c0,0.9,0,1.9,0.1,2.8c0.4,8.5,2.6,16.3,6.6,23.3
		c0.4,0.6,0.7,1.2,1.1,1.8c0.9,1.4,1.8,2.8,2.9,4.1c4.5,5.8,10.3,10.6,17.2,14.3c0.6,0.3,1.1,0.6,1.7,0.9c1.6,0.8,3.2,1.5,4.9,2.2
		c7.4,2.9,15.6,4.5,24.5,4.7c0.8,0,1.7,0,2.5,0c0.9,0,1.9,0,2.8,0c9.8-0.3,18.6-2.2,26.6-5.7c0.8-0.4,1.7-0.8,2.5-1.2
		c9.3-4.6,16.6-11,21.9-19.2c0.8-1.2,1.5-2.5,2.2-3.8c3.5-6.7,5.4-14.2,5.7-22.3c0-0.6,0-1.2,0-1.8v-127c0-0.3,0-0.6,0-0.9
		c0.2-2,0.9-3.5,2.1-4.7c0.8-0.7,1.7-1.3,2.7-1.6c0.8-0.3,1.8-0.4,2.8-0.4c1.5,0,2.8,0.3,3.9,0.8c0.6,0.3,1.2,0.7,1.7,1.2
		c1.2,1.2,1.9,2.9,2,4.9c0,0.2,0,0.5,0,0.7v127c0,13.1-3.1,24.7-9.2,35c-0.2,0.3-0.4,0.7-0.6,1c-6.6,10.5-15.7,18.7-27.4,24.6
		c-10.8,5.4-23,8.4-36.5,8.8c-1.1,0-2.2,0-3.3,0c-14.8,0-28.1-2.9-39.8-8.8c-0.9-0.5-1.8-0.9-2.7-1.4c-9.2-5.1-16.7-11.8-22.5-20
		c-0.7-1-1.4-2.1-2.1-3.2c-6.5-10.5-9.7-22.5-9.7-36v-127c0-0.3,0-0.6,0-0.9c0.2-2,0.9-3.5,2.1-4.7c0.8-0.7,1.7-1.3,2.7-1.6
		c0.8-0.3,1.8-0.4,2.8-0.4c1.5,0,2.8,0.3,3.9,0.8c0.6,0.3,1.2,0.7,1.7,1.2c1.2,1.2,1.9,2.9,2,4.9C609,409,609,409.2,609,409.5z
		 M890.6,408.2c-0.2-0.1-0.4-0.2-0.6-0.3c-10.2-5.7-21.5-8.6-33.7-8.6c-0.8,0-1.6,0-2.4,0c-11,0.3-20.7,2.3-29.2,6.2
		c-0.5,0.2-1,0.5-1.5,0.7c-8.4,4.1-15,9.8-19.8,17c-5,7.6-7.6,16.3-7.6,26.2c0,13,4.8,24.2,14.4,33.5c0.6,0.6,1.2,1.2,1.8,1.7
		c0.9,0.8,1.7,1.5,2.7,2.2c10,7.9,23.2,13.3,39.4,15.9c0.9,0.1,1.8,0.3,2.6,0.4c14.9,2,26.5,6.4,34.7,13c0.7,0.6,1.4,1.1,2,1.7
		c0.3,0.3,0.6,0.5,0.8,0.8c7.7,7.5,11.6,16.8,11.6,28c0,13.5-4.2,23.9-12.7,31.2c-1.4,1.2-2.9,2.3-4.5,3.3
		c-7.5,4.8-16.9,7.4-28.2,7.6c-0.7,0-1.4,0-2,0c-0.7,0-1.5,0-2.2,0c-10.5-0.2-19.7-2.1-27.6-5.6c-1-0.5-2.1-0.9-3.1-1.5
		c-0.5-0.3-1-0.5-1.5-0.8c-7.2-4-12.9-9.2-17.1-15.7c-0.7-1.1-1.3-2.2-2-3.3c-0.1-0.1-0.1-0.2-0.2-0.4c-1.4-2.7-3.5-4.2-6.2-4.5
		c-0.3,0-0.7-0.1-1,0c-0.1,0-0.2,0-0.3,0c-2.2,0.1-4,0.7-5.4,2c-0.2,0.2-0.5,0.5-0.7,0.7c-0.8,1-1.3,2.1-1.4,3.4
		c0,0.3-0.1,0.7-0.1,1c0,0.3,0,0.7,0.1,1c0.1,0.4,0.2,0.8,0.3,1.1c0.1,0.3,0.2,0.6,0.4,0.9c0.2,0.5,0.5,0.9,0.7,1.4
		c5.3,9.9,13,17.9,23,24.1c0.9,0.5,1.8,1.1,2.7,1.6c11.8,6.6,25.7,9.9,41.7,9.9c10.7,0,20.3-1.7,28.8-5.1c1.4-0.6,2.7-1.2,4.1-1.8
		c9.5-4.6,16.8-11.3,22-20c0.8-1.3,1.5-2.6,2.1-4c3.8-7.8,5.7-16.7,5.7-26.8c0-0.7,0-1.4,0-2.1c-0.4-13.5-4.6-24.7-12.6-33.6
		c-0.7-0.8-1.5-1.6-2.2-2.3c-9.9-9.6-25.6-16.3-47.1-19.8c-0.6-0.1-1.2-0.2-1.8-0.3c-15.5-2.8-27-7.3-34.5-13.5
		c-0.3-0.3-0.6-0.5-0.9-0.8c-7.2-6.3-10.8-14.1-10.8-23.3c0,0,0-0.1,0-0.1c0-11.4,4-20.2,11.9-26.6c0.3-0.2,0.6-0.5,0.9-0.7
		c7.5-5.7,17.6-8.6,30.3-8.9c0.7,0,1.3,0,2,0c0.3,0,0.6,0,0.9,0c17.8,0.2,31.6,7,41.5,20.2c0.5,0.7,1,1.3,1.4,2
		c1.5,2.3,3.5,3.5,6.1,3.8c0.3,0,0.7,0.1,1.1,0.1c0.2,0,0.4,0,0.6,0c1.1,0,1.9-0.2,2.5-0.5c0,0,0.1,0,0.1-0.1
		c0.7-0.3,1.3-0.8,1.8-1.2c0.5-0.4,0.9-0.9,1.3-1.4c0.5-0.8,0.9-1.6,1-2.5c0.1-0.4,0.1-0.8,0.1-1.2c0-1.5-0.3-2.9-1-4.1
		C908.7,421.4,901,414.2,890.6,408.2z M155.4,399.3c-1.3,0-2.6-0.1-3.9-0.1c-16.6,0-31.9,3.8-46,11.5c-1.5,0.8-2.9,1.6-4.3,2.5
		c-0.5,0.3-1,0.6-1.6,1c-13.2,8.4-24,19.2-32.4,32.6c-0.8,1.3-1.6,2.6-2.4,4c-9,15.7-13.4,32.7-13.4,50.9c0,16.6,3.7,32.2,11.2,46.8
		c0.7,1.4,1.5,2.9,2.3,4.3c9,15.8,21.2,28.3,36.6,37.6c0.5,0.3,1.1,0.6,1.6,0.9c14.9,8.7,31,13,48.3,13c27.3,0,48.3-7.3,63-22
		c1-1.2,1.6-2.6,1.8-4.4c0-0.3,0-0.6,0-1c0-1.8-0.6-3.4-1.7-4.8c-0.2-0.3-0.5-0.6-0.8-0.8c0,0-0.1-0.1-0.1-0.1
		c-1.6-1.5-3.4-2.2-5.4-2.2c-0.6,0-1.1,0.1-1.7,0.2c-0.4,0.1-0.8,0.3-1.3,0.5c-0.3,0.2-0.6,0.3-0.9,0.5
		c-15.2,12.5-32.9,18.7-53,18.7c-13.8,0-26.7-3.2-38.7-9.7c-1.2-0.7-2.5-1.4-3.7-2.1c-13.1-7.9-23.4-18.5-31-31.9
		c-6.9-12.2-10.7-25.3-11.3-39.4c-0.1-1.4-0.1-2.8-0.1-4.2c0-15.2,3.8-29.5,11.5-42.9c0-0.1,0.1-0.2,0.2-0.3
		c7.7-13.3,18-23.9,31-31.9c0.9-0.6,1.9-1.1,2.9-1.7c11-6.2,22.7-9.6,35.1-10.2c1.4-0.1,2.8-0.1,4.2-0.1c0.1,0,0.3,0,0.4,0
		c15.6,0.1,28.9,3.2,40,9.5c4,2.2,7.7,4.9,11,7.9c0.2,0.1,0.3,0.3,0.5,0.4c2.2,1.8,4.2,2.7,5.9,2.7c0.2,0,0.4,0,0.6,0
		c1.6-0.1,3-0.6,4.1-1.5c0.3-0.3,0.6-0.6,0.9-0.9c0.1-0.1,0.2-0.2,0.2-0.3c1.2-1.6,1.8-3.3,1.8-5.2c0-0.2,0-0.4,0-0.6
		c-0.1-1.9-0.9-3.4-2.3-4.5c0,0-0.1-0.1-0.1-0.1C197.4,407.6,177.7,400.1,155.4,399.3z M546.3,597.6l-47.1-75.3h-4.6h-41.2v71.7
		c0,2.2-0.7,4.1-2,5.5c-1.3,1.4-3.1,2.1-5.3,2.2c-0.1,0-0.2,0-0.3,0c-2.1,0-3.8-0.6-5.2-1.9c-0.1-0.1-0.2-0.2-0.3-0.3
		c-0.3-0.3-0.6-0.7-0.9-1c-0.9-1.2-1.3-2.7-1.3-4.4c0,0,0,0,0,0V409.5c0-0.3,0-0.6,0-0.9c0.2-2,0.9-3.5,2.1-4.7
		c0.8-0.7,1.7-1.3,2.7-1.6c0.8-0.3,1.8-0.4,2.8-0.4h48.9c12.3,0,23.3,2.6,33,7.7c9,4.7,16.1,11.2,21.5,19.4c0.4,0.7,0.9,1.4,1.3,2.1
		c2.1,3.6,3.9,7.4,5.2,11.4c2,6.2,3,12.9,3,20.1c0,12.6-3.2,23.7-9.5,33.2c-0.7,1-1.4,2-2.1,3c-0.8,1.1-1.7,2.1-2.6,3.2
		c-7.1,8-16,13.7-27,17.2c-0.6,0.2-1.2,0.4-1.8,0.5l44,70.4c1.4,2.4,2,4.4,2,5.9c0,0.3,0,0.6,0,0.8c-0.2,1.2-0.6,2.2-1.4,3
		c-0.2,0.2-0.4,0.4-0.7,0.6c-0.3,0.2-0.5,0.3-0.8,0.5c-1.4,0.7-3.2,1.1-5.5,1.1c-1.6,0-2.8-0.3-3.8-0.8c-0.1-0.1-0.2-0.1-0.3-0.2
		c-0.9-0.6-1.7-1.4-2.5-2.5C546.5,598,546.4,597.8,546.3,597.6z M394.2,596.9l-18.9-45.3H271.1l-18.9,45.3c-1.1,3.1-3.3,4.7-6.6,4.9
		c-0.2,0-0.4,0-0.5,0c-0.3,0-0.6,0-0.9,0c-1.9-0.2-3.4-0.9-4.5-2.1c-0.1-0.1-0.1-0.1-0.2-0.2c-0.3-0.3-0.5-0.6-0.7-1
		c-0.9-1.3-1.3-2.8-1.3-4.4c0-0.4,0-0.9,0.1-1.3c0.1-0.7,0.3-1.4,0.7-2l77.6-183.6c0.1-0.3,0.2-0.5,0.3-0.8c1.3-2.8,3.4-4.3,6.3-4.5
		c0.3,0,0.5,0,0.8,0c0.3,0,0.7,0,1,0.1c2.9,0.3,5,2.1,6.4,5.3l77.8,183.6c0.5,1,0.8,2.1,0.8,3.3c0,0.4,0,0.9-0.1,1.3
		c-0.3,1.5-1,2.9-2.2,4.1c-0.2,0.2-0.5,0.5-0.8,0.7c-1.2,0.9-2.5,1.5-4,1.6c-0.2,0-0.4,0-0.6,0c-0.3,0-0.6,0-0.9,0
		C397.6,601.4,395.5,599.8,394.2,596.9z M10.5,409.5v184.6c0,2.1-0.6,3.8-1.9,5.2c-0.1,0.1-0.2,0.2-0.3,0.3c-0.3,0.3-0.7,0.6-1,0.9
		c-1.2,0.9-2.7,1.3-4.4,1.3c0,0,0,0,0,0c-2.1,0-3.8-0.6-5.2-1.9c-0.1-0.1-0.2-0.2-0.3-0.3c-0.3-0.3-0.6-0.7-0.9-1
		c-0.9-1.2-1.3-2.7-1.3-4.4c0,0,0,0,0,0V409.5c0-2.1,0.6-3.8,1.9-5.2c0.1-0.1,0.2-0.2,0.3-0.3c0.3-0.3,0.7-0.6,1-0.9
		c1.2-0.9,2.7-1.3,4.4-1.3c0,0,0,0,0,0c2.1,0,3.8,0.6,5.2,1.9c0.1,0.1,0.2,0.2,0.3,0.3c0.3,0.3,0.6,0.7,0.9,1
		C10.1,406.3,10.5,407.8,10.5,409.5C10.5,409.5,10.5,409.5,10.5,409.5z M277,537.7h92.4l-46.3-110.6L277,537.7z M453.4,507h41.2
		c7.3,0,14-1.1,20.1-3.4c1.7-0.6,3.4-1.4,5-2.2c0.9-0.4,1.7-0.9,2.5-1.4c5.1-3,9.4-6.9,12.8-11.6c0.7-0.9,1.3-1.9,1.9-2.9
		c3.7-6.1,5.8-12.9,6.2-20.4c0-0.9,0.1-1.8,0.1-2.7c0-8.7-2.1-16.5-6.3-23.4c-4.2-6.9-9.9-12.3-17.3-16.1
		c-7.3-3.8-15.7-5.8-25.1-5.8h-41.2V507z"/>
</g>
<path class="st4" d="M71.6,115.3"/>
<g>
	<polygon points="91.6,178.8 20.5,178.8 56,128.1 20.5,77.4 91.6,77.4 138.5,10.5 185,77.4 255.5,77.4 220.3,128.1 255.5,178.8 
		185,178.8 138.5,245.6 	"/>
	<path d="M138.5,11l46.2,66.5l0.2,0.2h0.3H255l-34.9,50.1l-0.2,0.3l0.2,0.3l34.9,50.1h-69.9h-0.3l-0.2,0.2l-46.2,66.5l-46.6-66.5
		l-0.2-0.2h-0.3H21l35.2-50.1l0.2-0.3l-0.2-0.3L21,77.7h70.5h0.3l0.2-0.2L138.5,11 M138.5,10.1L91.5,77.2H20l35.7,50.9L20,179h71.5
		l47.1,67.1l46.6-67.1H256l-35.4-50.9L256,77.2h-70.8L138.5,10.1L138.5,10.1z"/>
</g>
<g>
	<polygon class="st5" points="156.7,83 181.3,170.2 174.2,102.6 	"/>
</g>
<g>
	<linearGradient id="SVGID_1_" gradientUnits="userSpaceOnUse" x1="104.0944" y1="171.9606" x2="203.6248" y2="171.9606">
		<stop  offset="3.842262e-02" style="stop-color:#FCEE21"/>
		<stop  offset="0.6486" style="stop-color:#FFFF00"/>
	</linearGradient>
	<path class="st6" d="M185.3,176H90.7c-1.3,0-2.4-1.1-2.4-2.4v-3.2c0-1.3,1.1-2.4,2.4-2.4h94.7c1.3,0,2.4,1.1,2.4,2.4v3.2
		C187.8,174.9,186.7,176,185.3,176z"/>
</g>
<g>
	<polygon class="st5" points="118.2,83 93.6,170.2 100.8,102.6 	"/>
</g>
<polygon class="st5" points="138.5,44.9 138.5,172 117.5,76.7 "/>
<path class="st4" d="M72.6,90"/>
<polygon class="st5" points="72.6,89.5 73.6,108.2 137.2,170.7 "/>
<polygon class="st5" points="203.4,89.5 202.4,108.2 138.8,170.7 "/>
<g>
	<polygon class="st5" points="138.5,77.7 160.6,96.8 138.5,145.2 138.5,126.1 147.7,101.9 138.5,94.8 	"/>
</g>
<rect x="296.6" y="90" class="st7" width="743.9" height="227"/>
<text transform="matrix(1.1 0 0 1.5 296.5953 198.8169)"><tspan x="0" y="0" class="st8 st9 st10">X</tspan><tspan x="88.3" y="0" class="st11 st9 st10">iang</tspan><tspan x="370.7" y="0" class="st8 st9 st10">p</tspan><tspan x="452.7" y="0" class="st11 st9 st10">i</tspan><tspan x="489" y="0" class="st8 st9 st10">X</tspan></text>
<path class="st12" d="M262.9-567.4"/>
<path class="st12" d="M263.4-581.9"/>
<image style="overflow:visible;" width="1200" height="630" xlink:href="og_image.png"  transform="matrix(0.5 0 0 0.5 151.9616 -1012.1626)">
</image>
<image style="overflow:visible;" width="1200" height="630" xlink:href="og_image.png"  transform="matrix(0.5 0 0 0.5 193.8944 -396.1821)">
</image>
</svg>
